<svg xmlns="http://www.w3.org/2000/svg" viewBox="0 0 918.5 950"><defs><style>.cls-1{fill:none;}.cls-2{fill:#e4ffe5;}.cls-3{fill:#707070;}.cls-4{fill:#ffb8b8;}.cls-5{fill:#fff;}.cls-6{fill:#ffc700;}.cls-7{fill:#3f3d56;}.cls-8{fill:#ff6584;}.cls-9{fill:#2f2e41;}.cls-10{fill:#d0cde1;}.cls-11{fill:#2b44ff;}.cls-12{fill:#191847;}.cls-13{fill:#131523;}.cls-14{fill:#0b5810;}.cls-15{fill:#e58b1d;}</style></defs><g id="Layer_2" data-name="Layer 2"><g id="Layer_1-2" data-name="Layer 1"><path class="cls-1" d="M362.38,864.41a10.83,10.83,0,0,0-9.17,4.4q-3.3,4.41-3.29,12.7a39.34,39.34,0,0,0,1.62,11.74,18.05,18.05,0,0,0,5.15,8.31,11.72,11.72,0,0,0,8,3.14,10.76,10.76,0,0,0,8.8-4.38q3.48-4.38,3.48-13.19,0-10-3.77-16.35A11.93,11.93,0,0,0,362.38,864.41Z"/><path class="cls-1" d="M482.84,894.39q0,7.32,7,7.31,6,0,11.87-7.21V881.84Q489.06,884,486,886.57C483.88,888.26,482.84,890.86,482.84,894.39Z"/><path class="cls-1" d="M259.53,846.13a26.15,26.15,0,0,0-13.32-3.46q-11,0-17.3,7.12t-6.32,21a47.05,47.05,0,0,0,1.79,12.29,32.77,32.77,0,0,0,5.33,11.3,23,23,0,0,0,8.17,7,25.14,25.14,0,0,0,23-1,20.76,20.76,0,0,0,8.31-10.33A41.57,41.57,0,0,0,272,874.34a43.19,43.19,0,0,0-3.25-17.1Q265.53,849.61,259.53,846.13Z"/><path class="cls-1" d="M680.68,864.41a10.83,10.83,0,0,0-9.17,4.4q-3.28,4.41-3.29,12.7a39.34,39.34,0,0,0,1.62,11.74,18.13,18.13,0,0,0,5.15,8.31,11.72,11.72,0,0,0,8,3.14,10.79,10.79,0,0,0,8.81-4.38q3.46-4.38,3.47-13.19,0-10-3.77-16.35A11.93,11.93,0,0,0,680.68,864.41Z"/><polygon class="cls-1" points="469.93 431.61 480.84 389.4 461.5 384.02 447.69 437.5 499.24 451.83 502.14 440.57 469.93 431.61"/><polygon class="cls-1" points="580.66 372.54 589.05 387.62 635.27 359.93 608.59 311.98 597.16 318.82 615.46 351.69 580.66 372.54"/><path class="cls-1" d="M560.18,484.53a21.55,21.55,0,0,0-7,1.19,24.67,24.67,0,0,1,0,43.67,21.19,21.19,0,0,0,7,1.2c12.26,0,22.2-10.31,22.2-23S572.44,484.53,560.18,484.53Z"/><path class="cls-2" d="M813.86,155.66c-1.4.06-2.82,1.36-2,2.79a37.94,37.94,0,0,1,5.32,18.71,37.81,37.81,0,0,0-4.67-18.89A1.83,1.83,0,0,1,813.86,155.66Z"/><path class="cls-2" d="M795.84,217.42a2,2,0,0,1-.25.14,1.8,1.8,0,0,1-.88.13,1.82,1.82,0,0,0,2.29.62,1.4,1.4,0,0,0,.24-.15c15.62-9.47,24.28-25.28,24.08-41.06C821,192.92,811.82,208.48,795.84,217.42Z"/><path class="cls-3" d="M762,254.71l-.93-.34-.26-.1L705,502.71c.56-.64,1.13-1.26,1.7-1.87Z"/><path class="cls-4" d="M762,254.71l.26.09,5.95,2.18a2.45,2.45,0,0,0,3.15-1.57,2.71,2.71,0,0,0,.11-1.17l-.69-5.67a2.91,2.91,0,0,0-.15-.58c21.37,4.24,53.28-13,64.7-44.58,12.3-34.06-2.75-71.44-25.07-80.15s-57.33,9.11-69.63,43.17c-11.39,31.52,1.65,66.26,20.34,77.76a2.4,2.4,0,0,0-.78.51l-4,4a2.62,2.62,0,0,0,0,3.61,2.54,2.54,0,0,0,1,.64l3.69,1.34.26.1ZM794.13,214c14.52-8.22,22.84-22.42,23.07-36.84a37.94,37.94,0,0,0-5.32-18.71c-.84-1.43.58-2.73,2-2.79a2,2,0,0,1,2.48.88,41.4,41.4,0,0,1,5,20.56c.2,15.78-8.46,31.59-24.08,41.06a1.4,1.4,0,0,1-.24.15,5.79,5.79,0,0,1-3.85-1.78A1.94,1.94,0,0,1,794.13,214Z"/><path class="cls-5" d="M794.71,217.69a1.8,1.8,0,0,0,.88-.13,2,2,0,0,0,.25-.14c16-8.94,25.19-24.5,25.48-40.32a41.4,41.4,0,0,0-5-20.56,2,2,0,0,0-2.48-.88,1.83,1.83,0,0,0-1.33,2.61,37.81,37.81,0,0,1,4.67,18.89c-.23,14.42-8.55,28.62-23.07,36.84a1.94,1.94,0,0,0-1,2.53A1.83,1.83,0,0,0,794.71,217.69Z"/><path class="cls-3" d="M679.51,181.61l-.45.07-.79.13L698.62,511.6c.36-.65.73-1.3,1.13-1.93Z"/><path class="cls-6" d="M679.51,181.61l4.81-.79a2.55,2.55,0,0,0,2-2.93,2.71,2.71,0,0,0-.43-1.09l-3.21-4.65a2.79,2.79,0,0,0-.4-.44c20.75-6.82,40.94-37.76,36.54-71.23-4.74-36.07-35.07-61.56-58.7-58.21S613.9,78.6,618.64,114.68c4.39,33.39,31.76,57.54,53.45,58.46a2.5,2.5,0,0,0-.46.83L670,179.43a2.58,2.58,0,0,0,1.61,3.21,2.4,2.4,0,0,0,1.13.09l5.11-.84.45-.08.79-.13Zm-1.93-68c5.54-18,1.25-31.69-9.81-31.3-1.23,0-.07-3.09,1.15-3.12,12.06-.32,16.67,14.75,10.54,34.45C678.84,115.64,677,115.58,677.58,113.6Z"/><path class="cls-5" d="M668.92,79.18c-1.22,0-2.38,3.15-1.15,3.12,11.06-.39,15.35,13.3,9.81,31.3-.61,2,1.26,2,1.88,0C685.59,93.93,681,78.86,668.92,79.18Z"/><path class="cls-7" d="M698.2,787.79H838.43v-2.56H700A10.54,10.54,0,0,1,698.2,787.79Z"/><path class="cls-7" d="M341,785.23c0,.36,0,.71,0,1.06h0v1.49H456.36a10.54,10.54,0,0,1-1.8-2.56Z"/><rect class="cls-7" x="78.8" y="785.23" width="208.43" height="2.56"/><polygon class="cls-8" points="580.66 372.54 615.46 351.69 597.16 318.82 562.37 339.67 580.66 372.54"/><polygon class="cls-8" points="578.53 373.81 559 338.73 595.93 316.61 587.54 301.53 539.19 330.49 567.11 380.66 578.53 373.81"/><path class="cls-9" d="M578.53,373.82l9.62,17.29,50.49-30.24-29.15-52.38-13.56,8.12L559,338.73Zm18.63-55L608.59,312l26.68,47.95-46.22,27.68-8.39-15.07-18.29-32.87Z"/><path class="cls-10" d="M535.52,507.56a25.62,25.62,0,0,1,14.35-23.22,22.56,22.56,0,0,0-7-1.09c-12.94,0-23.43,10.88-23.43,24.31s10.49,24.31,23.43,24.31a22.56,22.56,0,0,0,7-1.09A25.65,25.65,0,0,1,535.52,507.56Z"/><path class="cls-10" d="M566.35,507.56a24.39,24.39,0,0,0-13.19-21.84,23.3,23.3,0,0,0,0,43.67A24.37,24.37,0,0,0,566.35,507.56Z"/><path class="cls-9" d="M560.18,482a23.69,23.69,0,0,0-10.31,2.37,26,26,0,0,0,0,46.44,23.86,23.86,0,0,0,10.31,2.37c13.62,0,24.67-11.46,24.67-25.59S573.8,482,560.18,482Zm0,48.62a21.19,21.19,0,0,1-7-1.2,23.3,23.3,0,0,1,0-43.67,21.55,21.55,0,0,1,7-1.19c12.26,0,22.2,10.31,22.2,23S572.44,530.59,560.18,530.59Z"/><path class="cls-11" d="M701.21,780.18v-145l-.62-.85v26.48L620.52,551.16h19.34l-.47-.64H602.9a11.16,11.16,0,0,1,.89,4.38v233a11.18,11.18,0,0,1-.46,3.19h87.4a10.24,10.24,0,0,0,7.47-3.26,10.54,10.54,0,0,0,1.8-2.56A11.1,11.1,0,0,0,701.21,780.18Z"/><path class="cls-11" d="M550.77,554.9a11.16,11.16,0,0,1,.89-4.38H463.83a10.69,10.69,0,0,0-10.48,10.88V780.18a11.1,11.1,0,0,0,1.21,5.05,10.54,10.54,0,0,0,1.8,2.56,10.24,10.24,0,0,0,7.47,3.26h87.4a11.18,11.18,0,0,1-.46-3.19Z"/><path class="cls-12" d="M603.79,554.9a11.16,11.16,0,0,0-.89-4.38,10.5,10.5,0,0,0-9.59-6.5H561.25a10.5,10.5,0,0,0-9.59,6.5,11.16,11.16,0,0,0-.89,4.38v233a11.18,11.18,0,0,0,.46,3.19,10.54,10.54,0,0,0,10,7.68h32.06a10.54,10.54,0,0,0,10-7.68,11.18,11.18,0,0,0,.46-3.19Z"/><path class="cls-12" d="M701.8,542.77,717.28,564c5-6.32,16.6-19.13,30.14-22.59A31.67,31.67,0,0,0,751,528.86c1.33-22.56-25.91-42.65-25.91-42.65a87.92,87.92,0,0,0-18.44,14.63c-.57.61-1.14,1.23-1.7,1.87a53.47,53.47,0,0,0-5.21,7c-.4.63-.77,1.28-1.13,1.93a32.09,32.09,0,0,0-4.22,13.68A33.86,33.86,0,0,0,698.15,542l1.68,2.31Z"/><path class="cls-12" d="M717.28,564l16.54,22.65-2,1.55,2.62,3.59c5.24,4.07,11.29,7.14,17.86,7.53,21.76,1.3,41-27,41-27s-16-30.44-37.76-31.74a26.26,26.26,0,0,0-8.2.84C733.88,544.83,722.31,557.64,717.28,564Z"/><polygon points="620.52 551.16 700.59 660.81 700.59 634.33 639.86 551.16 620.52 551.16"/><path class="cls-11" d="M700.59,634.33l.62.85,59,80.77a10.36,10.36,0,0,0,8.37,4.31h0a10.22,10.22,0,0,0,6.32-2.2l24.57-19.32a11.15,11.15,0,0,0,2-15.24l-67-91.75-2.62-3.59-40.31,31.68-32-43.85,40.3-31.68L698.15,542l-63.48-86.93A10.23,10.23,0,0,0,620,453l-24.57,19.32a11.14,11.14,0,0,0-2,15.23l46,63,.47.64Z"/><polygon class="cls-12" points="717.27 563.96 701.8 542.76 699.84 544.31 659.53 575.99 691.55 619.84 731.86 588.16 733.82 586.62 717.27 563.96"/><polygon class="cls-10" points="504.53 441.23 523.86 446.61 538.32 390.65 484.39 375.65 481.48 386.93 516.07 396.54 504.53 441.23"/><polygon class="cls-10" points="502.14 440.57 513.05 398.35 480.84 389.4 469.93 431.61 502.14 440.57"/><path class="cls-9" d="M504.53,441.23l11.54-44.69-34.59-9.61-21.72-6-15.09,58.42L501,455Zm-56.84-3.73L461.5,384l19.34,5.38,32.21,9-10.9,42.22-2.91,11.26Z"/><path class="cls-4" d="M232,463.78h-8.58L231,507.83l9.3-27.79S236.69,473.84,232,463.78Z"/><polygon class="cls-4" points="313.25 727.76 290.9 726.61 290.9 766.71 308.62 766.71 313.25 727.76"/><path class="cls-13" d="M341,786.29c0-.35,0-.7,0-1.06-.54-10.32-8.76-18.52-18.84-18.52h-34.9v21.56H341v-2Z"/><polygon class="cls-4" points="174.27 739.38 190.87 745.78 204.04 719.48 183.79 712.8 174.27 739.38"/><path class="cls-13" d="M170.83,738.05l-7.24,20.21L214,777.71l.67-1.85h0c3.63-10.14-1.35-21.42-11.12-25.19l-12.67-4.89-16.6-6.4Z"/><path class="cls-4" d="M267.8,301.59l-.42-4.27c-10.68,4.58-16.29,19.82-13.71,31.92a31.25,31.25,0,0,0,6.53.68c17.87,0,32.36-15,32.36-33.57,0-.83,0-1.64-.1-2.46a68.5,68.5,0,0,1-9,.43C276.7,294.38,268.23,294.62,267.8,301.59Z"/><path class="cls-14" d="M346.1,729.47,326.17,575.11A14.94,14.94,0,0,1,324,579h0a13.76,13.76,0,0,1-17.06,4,14.87,14.87,0,0,1-6.61-19.53l-27.85-95.68c-2.86,1.59-4.74,2.8-4.74,2.8S261.17,442.09,252,408.2s0-52.87,0-52.87c17-16.26,31.26,15.4,31.26,15.4s23.62,94.41,14.47,90.33c-.16-.07-.32-.12-.49-.18L320,557a13.3,13.3,0,0,1,2,1.46,14.65,14.65,0,0,1,2.3,2.5L309.51,446.15S306.9,415,305.59,396s-36-49.54-39.33-51.39c-26.36-14.47-57.68,7-56.67,37.9.11,3.26.35,6.54.71,9.82a2.76,2.76,0,0,1,1.58-1.88,2.68,2.68,0,0,1,3.55,1.53l27.19,67.89a3.09,3.09,0,0,1,.21,1.08,2.78,2.78,0,0,1-2.72,2.83H232c4.7,10.06,8.27,16.26,8.27,16.26L231,507.83,164.48,706.42l19.31,6.38L204,719.48l22.17,7.32,51-84L267.7,725.4l23.2,1.21,22.35,1.16Z"/><path class="cls-15" d="M240.11,463.78a2.78,2.78,0,0,0,2.72-2.83,3.09,3.09,0,0,0-.21-1.08L215.43,392a2.68,2.68,0,0,0-3.55-1.53,2.76,2.76,0,0,0-1.58,1.88,3,3,0,0,0-.09.94l5,67.9a2.77,2.77,0,0,0,2.72,2.61h22.15Z"/><path class="cls-4" d="M322.05,558.5a13.3,13.3,0,0,0-2-1.46l-22.75-96.16c-6.52-2.37-18.27,3.23-24.82,6.87l27.85,95.68A14.87,14.87,0,0,0,306.9,583,13.76,13.76,0,0,0,324,579h0a15,15,0,0,0,.39-18A14.65,14.65,0,0,0,322.05,558.5Z"/><path class="cls-15" d="M297.26,460.88c.17.06.33.11.49.18,9.15,4.08-14.47-90.33-14.47-90.33S269,339.07,252,355.33c0,0-9.14,19,0,52.87s15.68,62.35,15.68,62.35,1.88-1.21,4.74-2.8C279,464.11,290.74,458.51,297.26,460.88Z"/><path class="cls-13" d="M257,337.19a22.14,22.14,0,0,1-3.29-7.95c-2.58-12.1,3-27.34,13.71-31.92l.42,4.27c.43-7,8.9-7.21,15.63-7.27a68.5,68.5,0,0,0,9-.43c3.87-.55,7.39-1.88,9.55-5.14,2.51-3.81,2-9.09,0-13.17s-5.5-7.21-8.87-10.23c-8.68-7.79-17.63-15.52-28.05-20.51s-22.64-7-33.46-3c-13.28,4.92-31.23,30.23-32.78,44.77s4.05,29.37,13.49,40.24S243.36,333.33,257,337.19Z"/><path class="cls-13" d="M247.93,838.68A37.43,37.43,0,0,0,233,841.52a32,32,0,0,0-11.26,8,30.52,30.52,0,0,0-6.62,11.27,41.78,41.78,0,0,0,0,25.25,31.3,31.3,0,0,0,6.33,11.72A27.63,27.63,0,0,0,232,905.38a35.23,35.23,0,0,0,13.55,2.55,37.59,37.59,0,0,0,18.72-4.68,31.91,31.91,0,0,0,12.8-13.12,40,40,0,0,0,4.47-19q0-15-9.12-23.73T247.93,838.68Zm21.27,51.38a20.76,20.76,0,0,1-8.31,10.33,25.14,25.14,0,0,1-23,1,23,23,0,0,1-8.17-7,32.77,32.77,0,0,1-5.33-11.3,47.05,47.05,0,0,1-1.79-12.29q0-13.92,6.32-21t17.3-7.12a26.15,26.15,0,0,1,13.32,3.46q6,3.48,9.26,11.11a43.19,43.19,0,0,1,3.25,17.1A41.57,41.57,0,0,1,269.2,890.06Z"/><path class="cls-13" d="M331.07,903q-.85-.84-.94-5.3-.22-10.86-.23-11.66v-8.25a30.24,30.24,0,0,0-.63-6.7,11.26,11.26,0,0,0-2.28-4.71,13.3,13.3,0,0,0-4.88-3.44,16,16,0,0,0-6.66-1.45,16.91,16.91,0,0,0-4,.46,14.67,14.67,0,0,0-2.78.89,8.14,8.14,0,0,0-1.79,1.32q-3.24,3.18-6.86,6.27.09-5.1.36-8.24l-.86-.61A56.86,56.86,0,0,1,285,865.06l-.36.38v2l.41.38,3.79,0a5.09,5.09,0,0,1,2.35.36,1.47,1.47,0,0,1,.7,1.1c.07.5.17,1.82.29,4s.18,3.86.18,5.11v9.23q0,2.63-.2,7.75c-.14,3.42-.26,5.44-.36,6a2.53,2.53,0,0,1-.59,1.36,2,2,0,0,1-1,.59q-.57.14-5,.42l-.4.38v2l.4.43q5.66-.37,10.84-.38t10.88.38l.37-.43v-2l-.41-.38c-2.86-.19-4.49-.32-4.88-.4a1.74,1.74,0,0,1-1-.54,2.74,2.74,0,0,1-.61-1.35,62.67,62.67,0,0,1-.38-6.54q-.19-5.6-.19-6.63V880.2a34.92,34.92,0,0,1,.21-4.9,6,6,0,0,1,1.19-2.48,14.82,14.82,0,0,1,3.08-2.86,12.26,12.26,0,0,1,3.74-2,14.32,14.32,0,0,1,4-.5,10.89,10.89,0,0,1,5.06,1.1,8.73,8.73,0,0,1,3.39,3.1,10.08,10.08,0,0,1,1.51,4.42c.17,1.63.25,4.28.25,8v6.14q0,9.8-.59,15.88l.54.52c3.62-.25,5.81-.38,6.6-.38q2,0,7.76.38l.37-.38v-2l-.37-.38C333.51,903.81,331.65,903.53,331.07,903Z"/><path class="cls-13" d="M364.32,861.27a22.47,22.47,0,0,0-13,3.77,21,21,0,0,0-7.7,9,27.15,27.15,0,0,0-2.21,10.75,26.09,26.09,0,0,0,2.37,11.11,21.87,21.87,0,0,0,7.34,8.64A19,19,0,0,0,362.38,908a22.35,22.35,0,0,0,16.51-6.94q6.84-6.93,6.84-17.66,0-9.75-6-15.95T364.32,861.27Zm9.21,39.05a10.76,10.76,0,0,1-8.8,4.38,11.72,11.72,0,0,1-8-3.14,18.05,18.05,0,0,1-5.15-8.31,39.34,39.34,0,0,1-1.62-11.74q0-8.29,3.29-12.7a10.83,10.83,0,0,1,9.17-4.4,11.93,11.93,0,0,1,10.86,6.37q3.76,6.38,3.77,16.35Q377,895.94,373.53,900.32Z"/><path class="cls-13" d="M462.82,903q-.85-.84-.94-5.3-.28-10.86-.28-11.66v-4.92c0-3.5-.09-6.25-.29-8.25a11.81,11.81,0,0,0-2.05-5.57,13.11,13.11,0,0,0-4.75-4.17,13.56,13.56,0,0,0-6.54-1.6,15.14,15.14,0,0,0-4.43.68,14,14,0,0,0-3.23,1.34,90.79,90.79,0,0,0-7.11,6.65,13.36,13.36,0,0,0-12.92-8.71,15.61,15.61,0,0,0-4.56.65,9.19,9.19,0,0,0-2.75,1.15c-.39.33-1.19,1.07-2.4,2.23l-4.29,4.07q.09-4.3.36-7.4l-.85-.61a57,57,0,0,1-14.54,3.51l-.37.38v2l.41.38,3.79,0a5.06,5.06,0,0,1,2.35.36,1.44,1.44,0,0,1,.7,1.1c.08.5.18,1.82.3,4s.18,3.86.18,5.11v9.23q0,2.63-.21,7.75c-.13,3.42-.25,5.44-.36,6a2.46,2.46,0,0,1-.59,1.36,2,2,0,0,1-1,.59c-.38.09-2,.23-4.94.42l-.41.38v2l.41.43q5.64-.37,10.83-.38c3.5,0,7.12.13,10.89.38l.36-.43v-2l-.41-.38c-2.86-.19-4.48-.32-4.85-.4a2,2,0,0,1-1-.51,2.62,2.62,0,0,1-.63-1.34q-.19-.93-.38-6.6t-.18-7.73v-6.94a32.89,32.89,0,0,1,.34-6.09,7.3,7.3,0,0,1,1.76-3,11.74,11.74,0,0,1,3.66-2.72,11.06,11.06,0,0,1,4.94-1.1,8.58,8.58,0,0,1,5.78,2,9,9,0,0,1,3,4.82,36.2,36.2,0,0,1,.7,8.16v5.34c0,1.75-.06,4.33-.2,7.75s-.25,5.44-.36,6a2.53,2.53,0,0,1-.59,1.36,2,2,0,0,1-1,.59q-.57.14-4.95.42l-.4.38v2l.4.43q6-.37,10.84-.38,5.24,0,10.89.38l.36-.43v-2l-.41-.38c-2.86-.19-4.48-.32-4.85-.4a2,2,0,0,1-1-.51,2.62,2.62,0,0,1-.63-1.34q-.19-.93-.38-6.6t-.18-7.73v-5.86q0-4.59.18-6.3a7.12,7.12,0,0,1,1.87-3.71,11.48,11.48,0,0,1,3.82-3,10.35,10.35,0,0,1,4.56-1,9.4,9.4,0,0,1,5.91,1.9,8.31,8.31,0,0,1,3.17,4.87,54.35,54.35,0,0,1,.67,10.42v5.63q0,9.8-.58,15.88l.58.52q5.43-.37,6.55-.38c1.36,0,3.94.13,7.77.38l.36-.38v-2l-.36-.38Q463.69,903.81,462.82,903Z"/><path class="cls-13" d="M512.28,903.62a7.28,7.28,0,0,1-1.85-.35,2,2,0,0,1-.88-.82,8.71,8.71,0,0,1-.38-3.46V885l.22-9.41a15.46,15.46,0,0,0-1.53-7.06,12.43,12.43,0,0,0-5-5,16.75,16.75,0,0,0-8.63-2q-7.58,0-15.62,6.19v5.81l.36.47,1.76.46.32-.23q2.12-5.25,2.44-5.74a6,6,0,0,1,2.46-1.29,13.58,13.58,0,0,1,4.76-.79,11.1,11.1,0,0,1,8,2.83q3,2.84,3,9.77Q483.2,881.7,479,885.56t-4.15,10.75a11.82,11.82,0,0,0,1.38,5.91,9.5,9.5,0,0,0,4,3.79,13.18,13.18,0,0,0,6.21,1.36,13.45,13.45,0,0,0,5.42-1.08l9.84-8-.18,7.54.68.66q3.8-.28,6.5-.28t6.15.28l.36-.38v-1.87l-.36-.42Zm-10.57-9.13q-5.86,7.21-11.87,7.21-7,0-7-7.31c0-3.53,1-6.13,3.11-7.82s7.33-3.26,15.76-4.73Z"/><polygon class="cls-13" points="493.13 854.99 506.41 837.47 505.64 836.29 505.06 836.15 498.01 837.51 491.1 853.87 491.24 854.47 492.55 855.18 493.13 854.99"/><path class="cls-13" d="M548.31,882.82a67.39,67.39,0,0,0-9.06-2.76l-4.92-1.32a10.59,10.59,0,0,1-3-1.24,5.37,5.37,0,0,1-2.14-2.27,7,7,0,0,1-.7-3.19,7,7,0,0,1,4.18-6.7,11.25,11.25,0,0,1,4.62-.84,14.23,14.23,0,0,1,5.06.91,10.29,10.29,0,0,1,3.71,2.25,6,6,0,0,1,1.62,2.49,22.51,22.51,0,0,1,.5,4l.4.42h1.81l.41-.42a80.21,80.21,0,0,1,.45-9.84l-.41-.65a36.12,36.12,0,0,0-5.42-1.67,28.42,28.42,0,0,0-6.59-.86,18.86,18.86,0,0,0-12,3.77A12.11,12.11,0,0,0,522,875a12.44,12.44,0,0,0,.9,4.8,10,10,0,0,0,2.62,3.68,10.77,10.77,0,0,0,3.57,2.13q1.85.63,6.5,1.76a46.76,46.76,0,0,1,7.52,2.27,7.51,7.51,0,0,1,3.14,2.44,5.92,5.92,0,0,1,1,3.49,8.41,8.41,0,0,1-2.87,6.37,10.77,10.77,0,0,1-7.65,2.67,18.09,18.09,0,0,1-6.78-1.38,9.84,9.84,0,0,1-4.83-3.59,65.86,65.86,0,0,1-.45-6.74l-.41-.42h-1.94l-.4.42c0,3.15-.07,5.22-.09,6.21a23.66,23.66,0,0,1-.28,2.92l-.45,3.14.23.61a68.78,68.78,0,0,0,7.2,1.45,47.25,47.25,0,0,0,7.07.66q8.08,0,13.23-4.64A14.44,14.44,0,0,0,554,892.1a10.59,10.59,0,0,0-1.49-5.74A9,9,0,0,0,548.31,882.82Z"/><path class="cls-13" d="M580.49,869.33c1.87,0,3.57,0,5.1,0L586,869l.85-3.93-.31-.33a70.92,70.92,0,0,1-7.63.28c-1.75,0-3.38,0-4.88-.05q.63-14.19,1.08-17.15l-1.08-.93a38.22,38.22,0,0,1-7.63,3.6q.27,2,.27,14.25a62.11,62.11,0,0,1-6.87,3l-.31.47v1.22l.4.38c1.75-.13,3.3-.19,4.65-.19h1.86v19.44c0,.56,0,1.11-.05,1.64-.12,1.75-.18,3.88-.18,6.37q0,10.22,10.16,10.22a11,11,0,0,0,4.79-1.13q4.11-3.89,5.19-4.68l-1.08-1.69a10.17,10.17,0,0,1-5.6,1.64,5.86,5.86,0,0,1-4-1.15,5,5,0,0,1-1.63-3.18,77,77,0,0,1-.29-8.65l.27-19.07Q578,869.33,580.49,869.33Z"/><path class="cls-13" d="M632.76,867.52a13.32,13.32,0,0,1,6.59-1.61,16.14,16.14,0,0,1,7,1.54q3.27,1.54,3.59,2.91a36.77,36.77,0,0,1,.5,5.29l.4.42h1.85l.41-.37q.45-6.51,1.31-11.81-4.47-2.76-11.47-2.76a18.2,18.2,0,0,0-5.74.72,42.48,42.48,0,0,0-6.16,3.07,57.14,57.14,0,0,0-5.8,3.66,13.32,13.32,0,0,0-3.14,3.56,20.83,20.83,0,0,0-2.35,5.69,30.19,30.19,0,0,0-.93,7.85q0,9.71,5.42,15.84t15.36,6.13a25.79,25.79,0,0,0,13-3.32l1.81-3.14-.95-1.22a31.18,31.18,0,0,1-5.35,2.15,17.36,17.36,0,0,1-4.76.66,15.13,15.13,0,0,1-7.05-1.64,14.06,14.06,0,0,1-5.08-4.33,22.1,22.1,0,0,1-3.09-6.8,30.08,30.08,0,0,1-1.18-8.41,23.63,23.63,0,0,1,1.47-8.78A10.07,10.07,0,0,1,632.76,867.52Z"/><path class="cls-13" d="M604.52,849.6a5.12,5.12,0,0,0,1.5-3.7,5.18,5.18,0,0,0-1.5-3.75,4.81,4.81,0,0,0-3.61-1.54,4.86,4.86,0,0,0-3.59,1.54,5.15,5.15,0,0,0-1.51,3.75,5.09,5.09,0,0,0,1.51,3.73,4.92,4.92,0,0,0,3.59,1.52A4.82,4.82,0,0,0,604.52,849.6Z"/><path class="cls-13" d="M607.28,903.41a1.74,1.74,0,0,1-1-.54,2.74,2.74,0,0,1-.61-1.35,61.24,61.24,0,0,1-.39-6.54q-.18-5.6-.18-6.63V877.76q0-9.46.5-15.6l-.86-.61a56.86,56.86,0,0,1-14.54,3.51l-.36.38v2l.4.38,3.8,0a5.12,5.12,0,0,1,2.35.36,1.47,1.47,0,0,1,.7,1.1c.07.5.17,1.82.29,4s.18,3.86.18,5.11v9.23q0,2.63-.2,7.75c-.14,3.42-.26,5.44-.36,6a2.61,2.61,0,0,1-.59,1.36,2,2,0,0,1-1,.59q-.57.14-4.95.42l-.41.38v2l.41.43c3.76-.25,7.38-.38,10.84-.38s7.12.13,10.88.38l.36-.43v-2l-.4-.38C609.3,903.62,607.67,903.49,607.28,903.41Z"/><path class="cls-13" d="M682.62,861.27a22.43,22.43,0,0,0-13,3.77,20.83,20.83,0,0,0-7.7,9,27,27,0,0,0-2.22,10.75,26.09,26.09,0,0,0,2.37,11.11,21.87,21.87,0,0,0,7.34,8.64A19,19,0,0,0,680.68,908a22.33,22.33,0,0,0,16.51-6.94q6.84-6.93,6.84-17.66,0-9.75-6-15.95T682.62,861.27Zm9.22,39.05A10.79,10.79,0,0,1,683,904.7a11.72,11.72,0,0,1-8-3.14,18.13,18.13,0,0,1-5.15-8.31,39.34,39.34,0,0,1-1.62-11.74q0-8.29,3.29-12.7a10.83,10.83,0,0,1,9.17-4.4,11.93,11.93,0,0,1,10.86,6.37q3.78,6.38,3.77,16.35Q695.31,895.94,691.84,900.32Z"/><rect class="cls-1" width="918.5" height="950"/></g></g></svg>